<svg xmlns="http://www.w3.org/2000/svg" viewBox="0 0 90.45 139.25">
  <path fill="currentColor" d="M25.1 117.94v-7.83h1.52l3.24 5.26v-5.26h1.46v7.83h-1.58l-3.18-5.16v5.16Zm7.57-3.88a5.12 5.12 0 0 1 .35-2 3.74 3.74 0 0 1 .73-1.08 3.17 3.17 0 0 1 1-.7 4.25 4.25 0 0 1 1.69-.31 3.71 3.71 0 0 1 2.78 1.03 4.83 4.83 0 0 1 0 6 4.09 4.09 0 0 1-5.52 0 4 4 0 0 1-1.03-2.94Zm1.62 0a2.94 2.94 0 0 0 .62 2 2 2 0 0 0 1.56.68A2 2 0 0 0 38 116a3.72 3.72 0 0 0 0-4 2 2 0 0 0-1.57-.66 2 2 0 0 0-1.58.67 3 3 0 0 0-.56 1.99Zm7.21 3.88v-7.83h3.33a5.72 5.72 0 0 1 1.82.21 1.8 1.8 0 0 1 .91.75 2.23 2.23 0 0 1 .34 1.23 2.09 2.09 0 0 1-.52 1.46 2.48 2.48 0 0 1-1.54.72 3.61 3.61 0 0 1 .84.66 8.53 8.53 0 0 1 .9 1.27l1 1.53h-1.93l-1.14-1.71a9.88 9.88 0 0 0-.84-1.15 1 1 0 0 0-.47-.32 2.57 2.57 0 0 0-.8-.09h-.32v3.27Zm1.58-4.52h1.17a6.19 6.19 0 0 0 1.42-.1.84.84 0 0 0 .45-.33 1.08 1.08 0 0 0 .15-.59.9.9 0 0 0-.21-.64 1 1 0 0 0-.59-.31h-2.39Zm5.92 1.97 1.54-.15a1.81 1.81 0 0 0 .56 1.13 1.65 1.65 0 0 0 1.14.37 1.79 1.79 0 0 0 1.15-.32 1 1 0 0 0 .39-.76.71.71 0 0 0-.17-.47 1.17 1.17 0 0 0-.56-.34c-.19-.06-.61-.18-1.27-.35a4.2 4.2 0 0 1-1.78-.77 2 2 0 0 1-.72-1.57 1.94 1.94 0 0 1 .34-1.12 2.06 2.06 0 0 1 1-.8 3.91 3.91 0 0 1 1.53-.27 3.29 3.29 0 0 1 2.22.65 2.24 2.24 0 0 1 .78 1.72l-1.58.07a1.38 1.38 0 0 0-.43-.87 1.66 1.66 0 0 0-1-.26 1.8 1.8 0 0 0-1.08.28.57.57 0 0 0-.25.49.59.59 0 0 0 .24.47 3.93 3.93 0 0 0 1.45.53 8 8 0 0 1 1.7.56 2.24 2.24 0 0 1 .87.8 2.41 2.41 0 0 1 .31 1.25 2.31 2.31 0 0 1-.37 1.26 2.28 2.28 0 0 1-1.06.87 4.3 4.3 0 0 1-1.71.29 3.37 3.37 0 0 1-2.27-.69 3 3 0 0 1-.97-2Zm7.7 2.55v-7.83h1.58v3.47l3.2-3.47h2.12l-3 3 3.11 4.78h-2l-2.16-3.68-1.28 1.3v2.38ZM7.85 129.27H6.13l-.68-1.78H2.32l-.64 1.78H0l3.05-7.83h1.67Zm-2.91-3.1-1.08-2.9-1 2.9Zm3.77 3.1v-7.83h1.59v3.48l3.19-3.48h2.13l-2.95 3 3.11 4.78h-2l-2.16-3.67-1.27 1.3v2.37Zm7.9 0v-7.83h1.58v3.48l3.2-3.48h2.12l-3 3 3.11 4.78h-2l-2.16-3.67-1.28 1.3v2.37Zm7.88 0v-7.83h3.33a5.72 5.72 0 0 1 1.82.21 1.9 1.9 0 0 1 .91.75 2.27 2.27 0 0 1 .34 1.24 2.1 2.1 0 0 1-.51 1.45 2.46 2.46 0 0 1-1.55.72 3.61 3.61 0 0 1 .84.66 9.12 9.12 0 0 1 .9 1.27l1 1.53h-1.93l-1.14-1.71a10.92 10.92 0 0 0-.84-1.15 1.2 1.2 0 0 0-.47-.32 2.57 2.57 0 0 0-.8-.09h-.32v3.27Zm1.58-4.52h1.17a6.43 6.43 0 0 0 1.42-.09 1 1 0 0 0 .45-.33 1.13 1.13 0 0 0 .16-.59.93.93 0 0 0-.21-.64 1 1 0 0 0-.6-.31h-2.39Zm6.31 4.52v-7.83h5.8v1.32H34v1.74h3.91v1.32H34V128h4.36v1.32Zm7.28-7.83h2.89a5.71 5.71 0 0 1 1.5.15 2.77 2.77 0 0 1 1.18.72 3.41 3.41 0 0 1 .74 1.27 5.81 5.81 0 0 1 .26 1.85 5.21 5.21 0 0 1-.23 1.67 3.53 3.53 0 0 1-.84 1.38 2.58 2.58 0 0 1-1.11.62 4.44 4.44 0 0 1-1.4.17h-3Zm1.59 1.32V128h1.18a4.3 4.3 0 0 0 1-.08 1.43 1.43 0 0 0 .64-.32 1.59 1.59 0 0 0 .41-.76 4.89 4.89 0 0 0 .17-1.43 4.57 4.57 0 0 0-.17-1.4 1.7 1.7 0 0 0-.45-.75 1.38 1.38 0 0 0-.73-.37 7.06 7.06 0 0 0-1.3-.08Zm6.27 6.51v-7.83h1.58v7.83Zm4.85 0v-6.51h-2.32v-1.32h6.23v1.32H54v6.51Zm4.92 0v-7.83h5.79v1.32h-4.21v1.74h3.92v1.32h-3.92V128h4.37v1.32Zm7.29 0v-7.83h3.33a5.68 5.68 0 0 1 1.82.21 1.86 1.86 0 0 1 .91.75 2.27 2.27 0 0 1 .35 1.24 2.11 2.11 0 0 1-.52 1.45 2.43 2.43 0 0 1-1.54.72 3.61 3.61 0 0 1 .84.66 9.12 9.12 0 0 1 .9 1.27l1 1.53h-1.94l-1.13-1.71a12.67 12.67 0 0 0-.84-1.15 1.36 1.36 0 0 0-.47-.32 2.61 2.61 0 0 0-.8-.09h-.32v3.27Zm1.59-4.52h1.17a6.43 6.43 0 0 0 1.42-.09.92.92 0 0 0 .44-.33 1 1 0 0 0 .16-.59.93.93 0 0 0-.21-.64 1 1 0 0 0-.6-.31h-2.38Zm6.25 4.52v-7.83H74v7.83Zm3.1 0v-7.83H77l3.24 5.26v-5.26h1.46v7.83h-1.54L77 124.11v5.16ZM87 126.39v-1.32h3.41v3.11A4.22 4.22 0 0 1 89 129a5.52 5.52 0 0 1-1.91.36 4.21 4.21 0 0 1-2.14-.52 3.2 3.2 0 0 1-1.37-1.47 4.72 4.72 0 0 1-.46-2.08 4.56 4.56 0 0 1 .51-2.18 3.47 3.47 0 0 1 1.5-1.46 4.06 4.06 0 0 1 1.87-.35 3.69 3.69 0 0 1 2.27.62 2.75 2.75 0 0 1 1.06 1.68l-1.57.3a1.65 1.65 0 0 0-.62-.91 1.92 1.92 0 0 0-1.14-.33 2.15 2.15 0 0 0-1.65.65 2.77 2.77 0 0 0-.62 2 3 3 0 0 0 .63 2.09 2 2 0 0 0 1.62.7 2.78 2.78 0 0 0 1-.2 3.29 3.29 0 0 0 .85-.47v-1Z"/>
  <path fill="#d11349" d="M14 105.4V80.14c0-18 11.82-33.67 31-33.67 11.21 0 31.1 7.58 31.1 33.15v25.78H69V80.09C69 68 61.24 54.38 45.06 54.38c-15 .21-23.7 12.5-23.7 26.86v24.16H14"/>
  <path d="M54.57 92.55v10.34c-1 .7-5.55 3.46-9.71 3.46-4.72 0-19-3.14-19-23.39 0-19.37 14.16-22.64 19.22-22.64 6 0 18.66 4.86 18.66 18v27.08h-7.15V81.78c0-2.13-.44-13.45-11.53-13.45s-12.38 13-12.38 13.81.5 16.09 12.38 16.09c2.78-.06 4.72-1 9.51-5.68m4.83-71c-1.53-1.67-10.5-.31-11.42-.18a5.67 5.67 0 0 0 3.23-5.06A5.3 5.3 0 0 0 46 10.74v-.47l.72-.26V5.2h3.07V3.35h-3.16V0H44.5v3.31h-3V5.2h3.08V10l.59.26a1.42 1.42 0 0 1 0 .47c-2.63 0-5.12 2.62-5.12 5.56s2.41 4.54 3.17 5.07c-8.51-1.31-10.64 0-11.46.23-9.2-1.06-11.26 2-11.91 3.17-.94 1.61-.13 3.35.19 4.76S22.67 40 23.07 41.75H68l3.69-14.53C73 20.92 61 20.88 59.4 21.55m-38.17 4c.21-.35 1.42-2.39 5.69-3 0 0 1.56-.17 2.53-.17s2 0 2 .55.36 1.74-.58 1.8a18.17 18.17 0 0 0-4 .78 15.51 15.51 0 0 0-2.8 1.55c-.21.25-.46.38-.84 0a4.47 4.47 0 0 0-1.55-1c-.31 0-.68-.15-.45-.49Zm6 11.52c-4 .17-5.52-3.92-5.58-4.79.59.32 2.64 1.78 3.5 1.7 1-.1 1.41-.6 1.42-2.09s-.51-3.09-1.87-2.56-2.81 1.15-2.81 1.15c.45-.88 1.28-2.22 1.28-2.22a1.12 1.12 0 0 0 .87-.17 17.81 17.81 0 0 1 5-2.44c.42-.1 2.84-.42 2.92.24a.67.67 0 0 1-.38.67c-.32.16-.77.34-.77.92a7.09 7.09 0 0 0 1.07 2.86 26 26 0 0 0-2.7-1.05c-.45 0-1.59.35-1.59 2.2s.82 2.41 1.7 2.41 3-1.59 3-1.59.04 4.36-5.06 4.78ZM34 22.83a3.92 3.92 0 0 1 2-.55 50 50 0 0 1 5.82.06c.81.1 2.44.31 2.44 1.05s-.17.9-.56.92-8.78.32-9.16.32-.76 0-.8-.76.15-.87.26-1.04Zm5.59 14.26c-4.27 0-5.69-3.09-5.73-4.72.42.21 2.69 1.75 3.74 1.53s1.36-1.26 1.26-2.39-.66-2.71-2.12-2.1-2.46 1-2.46 1a9 9 0 0 0 1.07-2.84c0-.56-1.14-1.25-1.39-1.36a.65.65 0 0 1-.1-.52c.09-.24.28-.32.87-.34.83 0 8.92-.17 9.13-.17a.48.48 0 0 1 .55.45c0 .37 0 .48-.38.76a1.56 1.56 0 0 0-.67 1.31 15.56 15.56 0 0 0 1 2.6c-.38-.1-1.73-1-2.43-1a2 2 0 0 0-1.8 2c0 1.57.65 2.6 1.7 2.58a6.1 6.1 0 0 0 2.94-1.47 5.17 5.17 0 0 1-5.15 4.68Zm17.25-6.67s-1-.38-2.46-1-2 1.1-2.12 2.1.13 2.13 1.24 2.39 3.34-1.32 3.76-1.53c0 1.63-1.46 4.72-5.74 4.72a5.18 5.18 0 0 1-5.23-4.66 6.18 6.18 0 0 0 2.94 1.47c1.05 0 1.74-1 1.71-2.58a2 2 0 0 0-1.81-2c-.69 0-2 .93-2.42 1a14.81 14.81 0 0 0 1-2.6 1.52 1.52 0 0 0-.65-1.31c-.35-.28-.41-.39-.38-.76a.48.48 0 0 1 .55-.45c.21 0 8.3.13 9.12.17.6 0 .77.1.88.34a.64.64 0 0 1-.11.52c-.25.11-1.35.8-1.39 1.36a9.25 9.25 0 0 0 1.14 2.82Zm.61-6.55c0 .73-.42.76-.8.76s-8.78-.28-9.16-.32-.56-.2-.56-.92 1.63-.95 2.43-1.05a50.28 50.28 0 0 1 5.84-.06 4 4 0 0 1 2 .55c.14.17.31.31.28 1.04Zm6.45 13.22c-5.09-.42-5.13-4.76-5.13-4.76s2.18 1.59 3.05 1.59 1.7-.59 1.7-2.41-1.14-2.16-1.6-2.2a27.87 27.87 0 0 0-2.7 1.05 7 7 0 0 0 1.08-2.86c0-.58-.46-.76-.77-.92a.65.65 0 0 1-.37-.67c.06-.66 2.49-.34 2.9-.24a17.67 17.67 0 0 1 5 2.44 1.14 1.14 0 0 0 .88.17s.82 1.34 1.27 2.22c0 0-1.45-.63-2.8-1.15s-1.88 1.17-1.88 2.56S65 33.9 66 34c.85.08 2.91-1.38 3.5-1.7-.05.87-1.58 4.96-5.57 4.79Zm5.55-11a4.59 4.59 0 0 0-1.56 1c-.38.34-.63.21-.83 0a15 15 0 0 0-2.81-1.55 18.19 18.19 0 0 0-4-.78c-.93-.06-.59-1.21-.59-1.8s1-.55 2-.55 2.54.17 2.54.17c4.27.63 5.48 2.67 5.69 3s-.09.48-.41.48Z"/>
</svg>