
<svg width="286" height="52" viewBox="0 0 286 52" fill="none" xmlns="http://www.w3.org/2000/svg">
 <style>
    path { fill: pink }

    @media (prefers-color-scheme: dark) {
      path { fill: #fafafa }
    }
  </style>
<path d="M0 47.0801V4.91988C0 2.20601 2.20601 0 4.91988 0C7.06241 0 8.95895 1.38868 9.60964 3.42805L14.958 20.2509C15.6643 22.4728 18.0369 23.6948 20.2509 22.9886C21.5523 22.5759 22.5759 21.5523 22.9886 20.2509L28.3369 3.42805C28.9876 1.38868 30.8842 0 33.0267 0H47.0801C49.794 0 52 2.20601 52 4.91988C52 7.06241 50.6113 8.95895 48.572 9.60964L31.7491 14.958C29.5272 15.6643 28.3052 18.0369 29.0114 20.2509C29.7177 22.4728 32.0903 23.6948 34.3043 22.9886C34.8439 22.814 35.3359 22.5442 35.7644 22.1712L43.8822 15.2358C45.9454 13.4662 49.0481 13.7122 50.8176 15.7754C51.635 16.7276 52.0555 17.9655 51.9921 19.2193L51.2938 33.241C51.1747 35.566 49.1988 37.3594 46.8738 37.2404C46.0327 37.2007 45.2233 36.9071 44.5567 36.3992L35.566 29.6542C33.7012 28.2576 31.0588 28.6385 29.6621 30.4953C29.3765 30.8762 29.1622 31.2968 29.0194 31.7491L23.671 48.572C23.0203 50.6113 21.1238 52 18.9812 52H4.91988C2.20601 52 0 49.794 0 47.0801Z" fill="currentColor"/>
<path d="M74.2349 24.4963H83.5873V27.3441H74.2349V36.6366H70.9375V15.2038H85.8056V18.0515H74.2349V24.4963Z" fill="#ff0000"/>
<path d="M93.4382 37.0862C91.8395 37.0862 90.4706 36.7465 89.3315 36.067C88.1924 35.3676 87.3131 34.4084 86.6936 33.1894C86.0941 31.9703 85.7943 30.5715 85.7943 28.9927C85.7943 27.7937 85.9642 26.7046 86.3039 25.7254C86.6436 24.7262 87.1432 23.8668 87.8027 23.1474C88.4822 22.408 89.2915 21.8485 90.2308 21.4688C91.19 21.0691 92.2591 20.8692 93.4382 20.8692C95.0369 20.8692 96.3958 21.219 97.5149 21.9184C98.654 22.5979 99.5333 23.5471 100.153 24.7661C100.772 25.9652 101.082 27.364 101.082 28.9628C101.082 30.1818 100.902 31.2909 100.542 32.2901C100.203 33.2693 99.6932 34.1186 99.0137 34.838C98.3542 35.5575 97.5549 36.117 96.6156 36.5167C95.6764 36.8964 94.6172 37.0862 93.4382 37.0862ZM93.4382 34.6582C94.2375 34.6582 94.917 34.5183 95.4766 34.2385C96.0561 33.9587 96.5257 33.5591 96.8854 33.0395C97.2651 32.4999 97.5449 31.8904 97.7247 31.2109C97.9246 30.5315 98.0245 29.7921 98.0245 28.9927C98.0245 27.9136 97.8546 26.9544 97.5149 26.115C97.1952 25.2557 96.6956 24.5763 96.0161 24.0767C95.3367 23.5771 94.4774 23.3273 93.4382 23.3273C92.6588 23.3273 91.9794 23.4672 91.3998 23.7469C90.8203 24.0267 90.3407 24.4264 89.961 24.946C89.5813 25.4656 89.3015 26.0751 89.1217 26.7745C88.9418 27.454 88.8519 28.1934 88.8519 28.9927C88.8519 30.0519 89.0117 31.0111 89.3315 31.8704C89.6512 32.7297 90.1508 33.4092 90.8303 33.9088C91.5297 34.4084 92.399 34.6582 93.4382 34.6582Z" fill="currentColor"/>
<path d="M103.94 21.3489H106.877V36.6366H103.94V21.3489ZM112.453 23.8968C112.253 23.8569 112.073 23.8369 111.913 23.8369C111.774 23.8169 111.624 23.8069 111.464 23.8069C110.565 23.8069 109.765 24.0167 109.066 24.4364C108.386 24.8361 107.847 25.4056 107.447 26.145C107.067 26.8844 106.877 27.7437 106.877 28.7229H105.439L104.779 24.2565H106.937C107.337 23.2973 107.857 22.5179 108.496 21.9184C109.156 21.2989 110.005 20.9892 111.044 20.9892C111.324 20.9892 111.574 20.9991 111.794 21.0191C112.013 21.0191 112.233 21.0391 112.453 21.0791V23.8968Z" fill="currentColor"/>
<path d="M121.376 27.404C122.075 27.5839 122.764 27.7737 123.444 27.9735C124.143 28.1734 124.773 28.4532 125.332 28.8129C125.912 29.1726 126.372 29.6322 126.711 30.1918C127.051 30.7513 127.221 31.4508 127.221 32.2901C127.221 33.2893 126.971 34.1486 126.471 34.868C125.992 35.5675 125.282 36.107 124.343 36.4867C123.404 36.8664 122.265 37.0563 120.926 37.0563C119.387 37.0563 118.098 36.8164 117.059 36.3368C116.04 35.8572 115.26 35.1977 114.721 34.3584C114.201 33.5191 113.922 32.5798 113.882 31.5407H116.849C116.909 32.1402 117.069 32.6798 117.329 33.1594C117.609 33.639 118.038 34.0187 118.618 34.2985C119.197 34.5583 119.957 34.6882 120.896 34.6882C121.755 34.6882 122.415 34.5782 122.874 34.3584C123.354 34.1386 123.684 33.8588 123.864 33.5191C124.063 33.1594 124.163 32.7997 124.163 32.44C124.163 31.8005 123.963 31.3309 123.564 31.0311C123.164 30.7114 122.664 30.4815 122.065 30.3416C121.465 30.1818 120.826 30.0319 120.147 29.892C119.487 29.7321 118.818 29.5623 118.138 29.3824C117.459 29.1826 116.839 28.9128 116.28 28.5731C115.72 28.2333 115.27 27.8037 114.931 27.2841C114.591 26.7645 114.421 26.105 114.421 25.3057C114.421 24.4264 114.651 23.657 115.111 22.9975C115.57 22.3381 116.23 21.8285 117.089 21.4688C117.968 21.0891 119.027 20.8992 120.266 20.8992C121.645 20.8992 122.794 21.119 123.714 21.5587C124.653 21.9983 125.362 22.5979 125.842 23.3573C126.322 24.0967 126.591 24.906 126.651 25.7853H123.684C123.624 25.3856 123.484 24.9959 123.264 24.6162C123.064 24.2365 122.734 23.9168 122.275 23.657C121.815 23.3972 121.156 23.2673 120.296 23.2673C119.637 23.2673 119.097 23.3473 118.678 23.5071C118.278 23.667 117.978 23.8868 117.778 24.1666C117.579 24.4464 117.479 24.7861 117.479 25.1858C117.479 25.7054 117.649 26.0951 117.988 26.3548C118.328 26.6146 118.798 26.8145 119.397 26.9544C119.997 27.0743 120.656 27.2241 121.376 27.404Z" fill="currentColor"/>
<path d="M129.896 36.6366V15.2038H132.833V28.9927L131.694 28.9328L139.518 21.3489H142.875L131.844 31.8704L132.833 29.5623V36.6366H129.896ZM140.058 36.6366L134.632 28.1834L136.64 26.3848L143.505 36.6366H140.058Z" fill="currentColor"/>
<path d="M145.567 36.6366V21.3489H148.504V36.6366H145.567ZM155.729 26.8345C155.729 26.155 155.619 25.5555 155.399 25.0359C155.199 24.5163 154.869 24.1166 154.41 23.8369C153.97 23.5571 153.381 23.4172 152.641 23.4172C152.002 23.4172 151.422 23.5071 150.903 23.687C150.403 23.8668 149.973 24.1266 149.614 24.4664C149.254 24.8061 148.974 25.2158 148.774 25.6954C148.594 26.155 148.504 26.6746 148.504 27.2541H147.485V23.2673H148.564C148.964 22.6878 149.574 22.1482 150.393 21.6486C151.212 21.149 152.281 20.8992 153.6 20.8992C154.56 20.8992 155.419 21.0891 156.178 21.4688C156.938 21.8285 157.547 22.388 158.007 23.1474C158.466 23.8868 158.696 24.8461 158.696 26.0251V36.6366H155.729V26.8345Z" fill="currentColor"/>
<path d="M162.203 36.6366V21.3489H165.14V36.6366H162.203ZM161.933 17.0923C161.933 16.6327 162.083 16.233 162.382 15.8932C162.682 15.5535 163.112 15.3837 163.671 15.3837C164.231 15.3837 164.661 15.5535 164.96 15.8932C165.26 16.233 165.41 16.6327 165.41 17.0923C165.41 17.5519 165.26 17.9516 164.96 18.2913C164.661 18.631 164.231 18.8009 163.671 18.8009C163.112 18.8009 162.682 18.631 162.382 18.2913C162.083 17.9516 161.933 17.5519 161.933 17.0923Z" fill="currentColor"/>
<path d="M168.8 36.6366V21.3489H171.738V36.6366H168.8ZM178.962 26.8345C178.962 26.155 178.852 25.5555 178.632 25.0359C178.433 24.5163 178.103 24.1166 177.643 23.8369C177.204 23.5571 176.614 23.4172 175.875 23.4172C175.235 23.4172 174.656 23.5071 174.136 23.687C173.636 23.8668 173.207 24.1266 172.847 24.4664C172.487 24.8061 172.208 25.2158 172.008 25.6954C171.828 26.155 171.738 26.6746 171.738 27.2541H170.719V23.2673H171.798C172.198 22.6878 172.807 22.1482 173.626 21.6486C174.446 21.149 175.515 20.8992 176.834 20.8992C177.793 20.8992 178.652 21.0891 179.412 21.4688C180.171 21.8285 180.781 22.388 181.24 23.1474C181.7 23.8868 181.93 24.8461 181.93 26.0251V36.6366H178.962V26.8345Z" fill="currentColor"/>
<path d="M196.172 35.6174V21.3489H199.109V35.4376C199.109 36.9563 198.819 38.2053 198.24 39.1845C197.66 40.1837 196.831 40.9232 195.752 41.4028C194.693 41.8824 193.424 42.1222 191.945 42.1222C190.486 42.1222 189.267 41.9024 188.288 41.4627C187.309 41.0431 186.549 40.4635 186.01 39.7241C185.49 38.9847 185.18 38.1654 185.08 37.2661H188.108C188.208 37.7257 188.398 38.1354 188.678 38.4951C188.977 38.8748 189.387 39.1746 189.907 39.3944C190.446 39.6142 191.126 39.7241 191.945 39.7241C193.324 39.7241 194.373 39.3944 195.092 38.7349C195.812 38.0954 196.172 37.0563 196.172 35.6174ZM196.112 33.5491C195.692 34.1486 195.102 34.6882 194.343 35.1678C193.604 35.6274 192.624 35.8572 191.405 35.8572C190.126 35.8572 188.977 35.5774 187.958 35.0179C186.959 34.4384 186.16 33.599 185.56 32.4999C184.961 31.3808 184.661 30.0119 184.661 28.3932C184.661 27.1542 184.831 26.0751 185.17 25.1558C185.51 24.2166 185.98 23.4372 186.579 22.8177C187.199 22.1782 187.918 21.6986 188.738 21.3788C189.557 21.0591 190.446 20.8992 191.405 20.8992C192.225 20.8992 192.924 21.0091 193.504 21.229C194.103 21.4488 194.613 21.7286 195.032 22.0683C195.472 22.408 195.832 22.7677 196.112 23.1474H196.351V33.5491H196.112ZM191.945 23.3573C190.986 23.3573 190.186 23.5771 189.547 24.0167C188.927 24.4564 188.468 25.0559 188.168 25.8153C187.868 26.5747 187.718 27.434 187.718 28.3932C187.718 29.3524 187.868 30.2118 188.168 30.9711C188.468 31.7305 188.927 32.33 189.547 32.7697C190.186 33.2093 190.986 33.4292 191.945 33.4292C192.604 33.4292 193.194 33.3292 193.714 33.1294C194.233 32.9096 194.673 32.5898 195.032 32.1702C195.392 31.7305 195.662 31.201 195.842 30.5815C196.042 29.962 196.142 29.2325 196.142 28.3932C196.142 27.2741 195.972 26.3449 195.632 25.6054C195.312 24.8461 194.833 24.2865 194.193 23.9268C193.574 23.5471 192.824 23.3573 191.945 23.3573Z" fill="currentColor"/>
<path d="M209.225 27.404C209.925 27.5839 210.614 27.7737 211.294 27.9735C211.993 28.1734 212.623 28.4532 213.182 28.8129C213.762 29.1726 214.221 29.6322 214.561 30.1918C214.901 30.7513 215.071 31.4508 215.071 32.2901C215.071 33.2893 214.821 34.1486 214.321 34.868C213.842 35.5675 213.132 36.107 212.193 36.4867C211.254 36.8664 210.115 37.0563 208.776 37.0563C207.237 37.0563 205.948 36.8164 204.909 36.3368C203.89 35.8572 203.11 35.1977 202.571 34.3584C202.051 33.5191 201.771 32.5798 201.731 31.5407H204.699C204.759 32.1402 204.919 32.6798 205.179 33.1594C205.458 33.639 205.888 34.0187 206.468 34.2985C207.047 34.5583 207.807 34.6882 208.746 34.6882C209.605 34.6882 210.265 34.5782 210.724 34.3584C211.204 34.1386 211.534 33.8588 211.713 33.5191C211.913 33.1594 212.013 32.7997 212.013 32.44C212.013 31.8005 211.813 31.3309 211.414 31.0311C211.014 30.7114 210.514 30.4815 209.915 30.3416C209.315 30.1818 208.676 30.0319 207.996 29.892C207.337 29.7321 206.667 29.5623 205.988 29.3824C205.309 29.1826 204.689 28.9128 204.129 28.5731C203.57 28.2333 203.12 27.8037 202.781 27.2841C202.441 26.7645 202.271 26.105 202.271 25.3057C202.271 24.4264 202.501 23.657 202.96 22.9975C203.42 22.3381 204.08 21.8285 204.939 21.4688C205.818 21.0891 206.877 20.8992 208.116 20.8992C209.495 20.8992 210.644 21.119 211.564 21.5587C212.503 21.9983 213.212 22.5979 213.692 23.3573C214.171 24.0967 214.441 24.906 214.501 25.7853H211.534C211.474 25.3856 211.334 24.9959 211.114 24.6162C210.914 24.2365 210.584 23.9168 210.125 23.657C209.665 23.3972 209.006 23.2673 208.146 23.2673C207.487 23.2673 206.947 23.3473 206.528 23.5071C206.128 23.667 205.828 23.8868 205.628 24.1666C205.428 24.4464 205.329 24.7861 205.329 25.1858C205.329 25.7054 205.498 26.0951 205.838 26.3548C206.178 26.6146 206.647 26.8145 207.247 26.9544C207.847 27.0743 208.506 27.2241 209.225 27.404Z" fill="currentColor"/>
<path d="M217.746 21.3489H220.683V36.6366H217.746V21.3489ZM226.259 23.8968C226.059 23.8569 225.879 23.8369 225.719 23.8369C225.579 23.8169 225.429 23.8069 225.27 23.8069C224.37 23.8069 223.571 24.0167 222.871 24.4364C222.192 24.8361 221.652 25.4056 221.253 26.145C220.873 26.8844 220.683 27.7437 220.683 28.7229H219.244L218.585 24.2565H220.743C221.143 23.2973 221.662 22.5179 222.302 21.9184C222.961 21.2989 223.811 20.9892 224.85 20.9892C225.13 20.9892 225.379 20.9991 225.599 21.0191C225.819 21.0191 226.039 21.0391 226.259 21.0791V23.8968Z" fill="currentColor"/>
<path d="M232.201 37.0563C230.682 37.0563 229.463 36.6566 228.543 35.8572C227.644 35.0379 227.195 33.9787 227.195 32.6798C227.195 31.8205 227.344 31.101 227.644 30.5215C227.964 29.942 228.404 29.4624 228.963 29.0827C229.523 28.703 230.192 28.3932 230.972 28.1534C231.771 27.9136 232.64 27.7038 233.579 27.5239C234.179 27.404 234.719 27.2941 235.198 27.1942C235.678 27.0943 236.087 26.9644 236.427 26.8045C236.767 26.6446 237.017 26.4448 237.177 26.205C237.356 25.9652 237.446 25.6554 237.446 25.2757C237.446 24.7162 237.237 24.2365 236.817 23.8369C236.417 23.4372 235.658 23.2373 234.539 23.2373C233.2 23.2373 232.28 23.4572 231.781 23.8968C231.281 24.3365 230.992 25.0759 230.912 26.115H227.914C227.974 25.1358 228.234 24.2565 228.693 23.4772C229.173 22.6778 229.892 22.0483 230.852 21.5887C231.831 21.1091 233.1 20.8692 234.659 20.8692C235.718 20.8692 236.667 21.0391 237.506 21.3788C238.366 21.6986 239.045 22.2382 239.545 22.9975C240.064 23.7569 240.324 24.8061 240.324 26.145V33.1594C240.324 33.7189 240.374 34.1386 240.474 34.4184C240.574 34.6981 240.764 34.838 241.043 34.838C241.083 34.838 241.133 34.838 241.193 34.838C241.253 34.838 241.323 34.828 241.403 34.8081V36.6066C241.143 36.6666 240.884 36.7065 240.624 36.7265C240.384 36.7665 240.144 36.7865 239.904 36.7865C239.185 36.7865 238.625 36.6266 238.226 36.3069C237.826 35.9671 237.586 35.3576 237.506 34.4783H237.446C236.927 35.2577 236.227 35.8872 235.348 36.3668C234.489 36.8264 233.44 37.0563 232.201 37.0563ZM232.86 34.6882C233.739 34.6882 234.519 34.5383 235.198 34.2385C235.898 33.9388 236.447 33.4891 236.847 32.8896C237.247 32.2901 237.446 31.5507 237.446 30.6714V28.4831C237.286 28.623 237.037 28.7629 236.697 28.9028C236.377 29.0227 235.988 29.1426 235.528 29.2625C235.088 29.3624 234.609 29.4723 234.089 29.5922C233.19 29.7721 232.45 29.9919 231.871 30.2517C231.311 30.4915 230.902 30.7913 230.642 31.151C230.402 31.4907 230.282 31.9304 230.282 32.4699C230.282 33.1894 230.482 33.7389 230.882 34.1186C231.301 34.4983 231.961 34.6882 232.86 34.6882ZM234.479 19.9999C233.699 19.9999 233.04 19.7501 232.5 19.2505C231.981 18.731 231.721 18.0615 231.721 17.2422C231.721 16.4228 231.981 15.7633 232.5 15.2637C233.04 14.7442 233.699 14.4844 234.479 14.4844C235.298 14.4844 235.968 14.7442 236.487 15.2637C237.007 15.7633 237.267 16.4228 237.267 17.2422C237.267 18.0615 237.007 18.731 236.487 19.2505C235.968 19.7501 235.298 19.9999 234.479 19.9999ZM234.479 18.681C234.898 18.681 235.238 18.5511 235.498 18.2913C235.758 18.0315 235.888 17.6818 235.888 17.2422C235.888 16.8225 235.758 16.4828 235.498 16.223C235.238 15.9432 234.898 15.8033 234.479 15.8033C234.099 15.8033 233.779 15.9432 233.52 16.223C233.26 16.4828 233.13 16.8225 233.13 17.2422C233.13 17.6818 233.26 18.0315 233.52 18.2913C233.779 18.5511 234.099 18.681 234.479 18.681Z" fill="currentColor"/>
<path d="M254.935 15.2038H257.903V36.6366H254.935V15.2038ZM254.875 23.2074H255.685V34.838H254.875C254.616 35.1778 254.266 35.5275 253.826 35.8872C253.407 36.2269 252.887 36.5067 252.268 36.7265C251.668 36.9463 250.969 37.0563 250.169 37.0563C248.87 37.0563 247.701 36.7365 246.662 36.097C245.643 35.4575 244.834 34.5383 244.234 33.3392C243.635 32.1202 243.335 30.6714 243.335 28.9927C243.335 27.7337 243.505 26.6046 243.844 25.6054C244.184 24.6063 244.664 23.7569 245.283 23.0575C245.923 22.3581 246.652 21.8285 247.471 21.4688C248.291 21.0891 249.19 20.8992 250.169 20.8992C250.969 20.8992 251.668 21.0091 252.268 21.229C252.887 21.4488 253.407 21.7386 253.826 22.0983C254.266 22.438 254.616 22.8077 254.875 23.2074ZM250.649 34.6282C251.328 34.6282 251.928 34.4983 252.447 34.2385C252.967 33.9787 253.407 33.599 253.766 33.0994C254.146 32.5998 254.436 32.0103 254.636 31.3309C254.836 30.6314 254.935 29.852 254.935 28.9927C254.935 27.8337 254.766 26.8345 254.426 25.9951C254.086 25.1358 253.597 24.4863 252.957 24.0467C252.318 23.5871 251.548 23.3573 250.649 23.3573C249.949 23.3573 249.33 23.5071 248.79 23.8069C248.251 24.1067 247.801 24.5163 247.441 25.0359C247.102 25.5555 246.842 26.155 246.662 26.8345C246.482 27.5139 246.392 28.2333 246.392 28.9927C246.392 29.9919 246.542 30.9212 246.842 31.7805C247.162 32.6398 247.641 33.3292 248.281 33.8488C248.92 34.3684 249.71 34.6282 250.649 34.6282Z" fill="currentColor"/>
<path d="M268.316 37.0862C266.697 37.0862 265.319 36.7365 264.179 36.0371C263.06 35.3376 262.211 34.3784 261.632 33.1594C261.052 31.9204 260.762 30.5215 260.762 28.9628C260.762 27.7637 260.932 26.6746 261.272 25.6954C261.632 24.6962 262.131 23.8369 262.771 23.1174C263.43 22.398 264.219 21.8485 265.139 21.4688C266.078 21.0691 267.137 20.8692 268.316 20.8692C269.875 20.8692 271.184 21.189 272.243 21.8285C273.322 22.468 274.142 23.3772 274.701 24.5563C275.281 25.7154 275.57 27.0843 275.57 28.663C275.57 28.8628 275.57 29.0727 275.57 29.2925C275.57 29.4923 275.56 29.6522 275.54 29.7721H262.231V27.464H272.483C272.483 26.8644 272.383 26.3149 272.183 25.8153C271.983 25.2957 271.693 24.8461 271.314 24.4664C270.954 24.0867 270.514 23.7969 269.995 23.5971C269.475 23.3772 268.886 23.2673 268.226 23.2673C267.367 23.2673 266.598 23.4572 265.918 23.8369C265.259 24.2166 264.739 24.7461 264.359 25.4256C263.98 26.105 263.79 26.9044 263.79 27.8237C263.79 28.1434 263.79 28.4632 263.79 28.7829C263.79 29.0827 263.79 29.3624 263.79 29.6222C263.79 30.5015 263.96 31.3209 264.299 32.0803C264.639 32.8396 265.149 33.4691 265.828 33.9687C266.508 34.4483 267.357 34.6882 268.376 34.6882C269.275 34.6882 269.995 34.5283 270.534 34.2085C271.094 33.8888 271.514 33.5191 271.793 33.0994C272.093 32.6598 272.293 32.2701 272.393 31.9304H275.361C275.101 32.9096 274.671 33.7889 274.072 34.5683C273.472 35.3476 272.693 35.9671 271.733 36.4268C270.794 36.8664 269.655 37.0862 268.316 37.0862Z" fill="currentColor"/>
<path d="M282.254 16.4328V32.41C282.254 32.9496 282.304 33.3592 282.404 33.639C282.524 33.9188 282.704 34.1186 282.944 34.2385C283.203 34.3384 283.543 34.3884 283.963 34.3884C284.202 34.3884 284.402 34.3784 284.562 34.3584C284.742 34.3384 284.962 34.3085 285.222 34.2685V36.6366C284.842 36.6965 284.512 36.7365 284.232 36.7565C283.973 36.7965 283.673 36.8164 283.333 36.8164C282.514 36.8164 281.794 36.6866 281.175 36.4268C280.575 36.167 280.116 35.7173 279.796 35.0778C279.476 34.4184 279.316 33.4991 279.316 32.3201V16.4328H282.254ZM277.098 21.3489H285.192V23.7769H277.098V21.3489Z" fill="currentColor"/>
</svg>
