<svg width="24" height="24" fill="none" xmlns="http://www.w3.org/2000/svg"><path d="M19.778 2A2.222 2.222 0 0 1 22 4.222v15.556A2.222 2.222 0 0 1 19.778 22H4.222A2.222 2.222 0 0 1 2 19.778V4.222A2.222 2.222 0 0 1 4.222 2h15.556Zm-.556 17.222v-5.889A3.622 3.622 0 0 0 15.6 9.711c-.944 0-2.044.578-2.578 1.445V9.922h-3.1v9.3h3.1v-5.478a1.55 1.55 0 0 1 1.545-1.555 1.556 1.556 0 0 1 1.555 1.555v5.478h3.1ZM6.312 8.178A1.867 1.867 0 0 0 8.177 6.31 1.873 1.873 0 0 0 6.31 4.433a1.878 1.878 0 0 0-1.878 1.878c0 1.033.845 1.867 1.878 1.867Zm1.544 11.044v-9.3H4.778v9.3h3.078Z" fill="#000"/></svg>