
<svg xmlns="http://www.w3.org/2000/svg" width="512" height="512" fill="none" viewBox="0 0 512 512">
  <g clip-path="url(#a)">
    <path fill="#181646" d="M512 0H0v512h512z"/>
    <path fill="#ff4473" d="M182.954 530V311.133c0-9.197.252-18.606 3.316-27.392a64.75 64.75 0 0 1 14.439-23.527 64.9 64.9 0 0 1 22.94-15.389 64.95 64.95 0 0 1 27.278-4.459c46.41 0 65.047 27.54 65.047 70.037V529.27h88.254V310.403c0-39.943 21.927-70.403 65.596-70.037 54.817 0 65.597 27.54 65.597 70.037V529.27H616V276.843c0-84.811-60.846-123.842-148.552-123.842a144.9 144.9 0 0 0-56.149 11.09 144.7 144.7 0 0 0-47.452 31.954c-23.388-27.541-60.48-43.044-115.295-43.044-71.627 0-148.552 39.943-148.552 123.842V530z"/>
  </g>
  <defs>
    <clipPath id="a">
      <path fill="#fff" d="M0 0h512v512H0z"/>
    </clipPath>
  </defs>
</svg>
